<?xml version="1.0" encoding="UTF-8" standalone="no"?>
<!-- Generate more at customizr.net -->

<svg
   xmlns:dc="http://purl.org/dc/elements/1.1/"
   xmlns:cc="http://creativecommons.org/ns#"
   xmlns:rdf="http://www.w3.org/1999/02/22-rdf-syntax-ns#"
   xmlns:svg="http://www.w3.org/2000/svg"
   xmlns="http://www.w3.org/2000/svg"
   xmlns:sodipodi="http://sodipodi.sourceforge.net/DTD/sodipodi-0.dtd"
   xmlns:inkscape="http://www.inkscape.org/namespaces/inkscape"
   id="linkedin"
   class="custom-icon"
   version="1.1"
   viewBox="0 0 100 100"
   inkscape:version="0.91 r13725"
   sodipodi:docname="linkedin.svg">
  <metadata
     id="metadata11">
    <rdf:RDF>
      <cc:Work
         rdf:about="">
        <dc:format>image/svg+xml</dc:format>
        <dc:type
           rdf:resource="http://purl.org/dc/dcmitype/StillImage" />
      </cc:Work>
    </rdf:RDF>
  </metadata>
  <defs
     id="defs9" />
  <sodipodi:namedview
     pagecolor="#ffffff"
     bordercolor="#666666"
     borderopacity="1"
     objecttolerance="10"
     gridtolerance="10"
     guidetolerance="10"
     inkscape:pageopacity="0"
     inkscape:pageshadow="2"
     inkscape:window-width="2560"
     inkscape:window-height="1377"
     id="namedview7"
     showgrid="false"
     inkscape:zoom="8"
     inkscape:cx="68.22223"
     inkscape:cy="55.850933"
     inkscape:window-x="-8"
     inkscape:window-y="-8"
     inkscape:window-maximized="1"
     inkscape:current-layer="linkedin" />
  <path
     class="inner-shape"
     style="opacity:1;fill:#f7f7f7;"
     transform="translate(25,25) scale(0.5)"
     d="M82.539,1H17.461C8.408,1,1,8.408,1,17.461v65.078C1,91.592,8.408,99,17.461,99h65.078C91.592,99,99,91.592,99,82.539 V17.461C99,8.408,91.592,1,82.539,1z M37.75,80.625H25.5V37.75h12.25V80.625z M31.625,31.625c-3.383,0-6.125-2.742-6.125-6.125 s2.742-6.125,6.125-6.125s6.125,2.742,6.125,6.125S35.008,31.625,31.625,31.625z M80.625,80.625h-12.25v-24.5 c0-3.383-2.742-6.125-6.125-6.125s-6.125,2.742-6.125,6.125v24.5h-12.25V37.75h12.25v7.606c2.526-3.47,6.389-7.606,10.719-7.606 c7.612,0,13.782,6.856,13.782,15.312L80.625,80.625L80.625,80.625z"
     id="path5" />
  <path
     style="fill:#ff9d00;fill-opacity:0;stroke:none;stroke-width:10;stroke-miterlimit:4;stroke-dasharray:none;stroke-opacity:1"
     d="M 42.79661,97.26489 C 24.07151,94.170297 9.1986322,80.99997 4.0161134,62.923729 -2.3127863,40.848995 8.4663665,16.98127 29.260938,7.025411 45.585932,-0.79053886 64.370398,1.0324009 78.689564,11.822215 91.936449,21.804045 99.262966,38.397066 97.557915,54.555085 95.369038,75.29811 80.956068,91.692962 60.59322,96.602674 55.825492,97.752229 47.597936,98.058377 42.79661,97.26489 Z M 69.826203,73.770051 C 71.648072,72.835742 72.924008,71.53261 73.891114,69.6185 74.490597,68.431992 74.576271,65.978843 74.576271,50 c 0,-15.978843 -0.08567,-18.431991 -0.685157,-19.6185 -0.967106,-1.914109 -2.243042,-3.217241 -4.064911,-4.15155 -1.473546,-0.755679 -2.716716,-0.806221 -19.830364,-0.806221 -15.975011,0 -18.427844,0.08568 -19.614339,0.685158 -1.914109,0.967105 -3.217241,2.243041 -4.15155,4.06491 C 25.474279,31.647328 25.423729,32.890442 25.423729,50 c 0,17.109559 0.05055,18.352674 0.806221,19.826203 0.911472,1.777335 2.205547,3.064835 4.06666,4.045988 1.10083,0.580339 3.729418,0.672423 19.614339,0.687114 17.216093,0.01593 18.439746,-0.03258 19.915254,-0.789254 z"
     id="path4139"
     inkscape:connector-curvature="0" />
  <path
     style="fill:#ff9d00;fill-opacity:0;stroke:none;stroke-width:10;stroke-miterlimit:4;stroke-dasharray:none;stroke-opacity:1"
     d="M 42.79661,97.26489 C 24.07151,94.170297 9.1986322,80.99997 4.0161134,62.923729 -2.3127863,40.848995 8.4663665,16.98127 29.260938,7.025411 45.585932,-0.79053886 64.370398,1.0324009 78.689564,11.822215 91.936449,21.804045 99.262966,38.397066 97.557915,54.555085 95.369038,75.29811 80.956068,91.692962 60.59322,96.602674 55.825492,97.752229 47.597936,98.058377 42.79661,97.26489 Z M 69.826203,73.770051 C 71.648072,72.835742 72.924008,71.53261 73.891114,69.6185 74.490597,68.431992 74.576271,65.978843 74.576271,50 c 0,-15.978843 -0.08567,-18.431991 -0.685157,-19.6185 -0.967106,-1.914109 -2.243042,-3.217241 -4.064911,-4.15155 -1.473546,-0.755679 -2.716716,-0.806221 -19.830364,-0.806221 -15.975011,0 -18.427844,0.08568 -19.614339,0.685158 -1.914109,0.967105 -3.217241,2.243041 -4.15155,4.06491 C 25.474279,31.647328 25.423729,32.890442 25.423729,50 c 0,17.109559 0.05055,18.352674 0.806221,19.826203 0.911472,1.777335 2.205547,3.064835 4.06666,4.045988 1.10083,0.580339 3.729418,0.672423 19.614339,0.687114 17.216093,0.01593 18.439746,-0.03258 19.915254,-0.789254 z"
     id="path4141"
     inkscape:connector-curvature="0" />
  <path
     style="fill:#ff9d00;fill-opacity:0;stroke:none;stroke-width:10;stroke-miterlimit:4;stroke-dasharray:none;stroke-opacity:1"
     d="M 42.79661,97.26489 C 24.07151,94.170297 9.1986322,80.99997 4.0161134,62.923729 -2.3127863,40.848995 8.4663665,16.98127 29.260938,7.025411 45.585932,-0.79053886 64.370398,1.0324009 78.689564,11.822215 91.936449,21.804045 99.262966,38.397066 97.557915,54.555085 95.369038,75.29811 80.956068,91.692962 60.59322,96.602674 55.825492,97.752229 47.597936,98.058377 42.79661,97.26489 Z M 69.826203,73.770051 C 71.648072,72.835742 72.924008,71.53261 73.891114,69.6185 74.490597,68.431992 74.576271,65.978843 74.576271,50 c 0,-15.978843 -0.08567,-18.431991 -0.685157,-19.6185 -0.967106,-1.914109 -2.243042,-3.217241 -4.064911,-4.15155 -1.473546,-0.755679 -2.716716,-0.806221 -19.830364,-0.806221 -15.975011,0 -18.427844,0.08568 -19.614339,0.685158 -1.914109,0.967105 -3.217241,2.243041 -4.15155,4.06491 C 25.474279,31.647328 25.423729,32.890442 25.423729,50 c 0,17.109559 0.05055,18.352674 0.806221,19.826203 0.911472,1.777335 2.205547,3.064835 4.06666,4.045988 1.10083,0.580339 3.729418,0.672423 19.614339,0.687114 17.216093,0.01593 18.439746,-0.03258 19.915254,-0.789254 z"
     id="path4143"
     inkscape:connector-curvature="0" />
  <path
     style="fill:#ff9d00;fill-opacity:1;stroke:none;stroke-width:10;stroke-miterlimit:4;stroke-dasharray:none;stroke-opacity:1"
     d="M 42.79661,97.26489 C 24.07151,94.170297 9.1986322,80.99997 4.0161134,62.923729 -2.3127863,40.848995 8.4663665,16.98127 29.260938,7.025411 45.585932,-0.79053886 64.370398,1.0324009 78.689564,11.822215 91.936449,21.804045 99.262966,38.397066 97.557915,54.555085 95.369038,75.29811 80.956068,91.692962 60.59322,96.602674 55.825492,97.752229 47.597936,98.058377 42.79661,97.26489 Z M 69.826203,73.770051 C 71.648072,72.835742 72.924008,71.53261 73.891114,69.6185 74.490597,68.431992 74.576271,65.978843 74.576271,50 c 0,-15.978843 -0.08567,-18.431991 -0.685157,-19.6185 -0.967106,-1.914109 -2.243042,-3.217241 -4.064911,-4.15155 -1.473546,-0.755679 -2.716716,-0.806221 -19.830364,-0.806221 -15.975011,0 -18.427844,0.08568 -19.614339,0.685158 -1.914109,0.967105 -3.217241,2.243041 -4.15155,4.06491 C 25.474279,31.647328 25.423729,32.890442 25.423729,50 c 0,17.109559 0.05055,18.352674 0.806221,19.826203 0.911472,1.777335 2.205547,3.064835 4.06666,4.045988 1.10083,0.580339 3.729418,0.672423 19.614339,0.687114 17.216093,0.01593 18.439746,-0.03258 19.915254,-0.789254 z"
     id="path4145"
     inkscape:connector-curvature="0" />
  <path
     style="fill:#ff9d00;fill-opacity:1;stroke:none;stroke-width:10;stroke-miterlimit:4;stroke-dasharray:none;stroke-opacity:1"
     d="m 47.033898,54.661017 0,-10.59322 2.966102,0 2.966102,0 0.0047,2.012711 0.0047,2.012712 1.091907,-1.385517 c 2.700288,-3.426388 6.380507,-3.46617 9.213294,-0.09959 1.654784,1.966599 1.968595,3.805148 1.971173,11.548671 l 0.0024,7.097457 -2.966101,0 -2.966102,0 0,-6.705799 c 0,-6.461624 -0.03571,-6.739346 -0.9807,-7.627119 -1.248148,-1.172574 -3.394056,-1.20758 -4.527775,-0.07386 -0.776836,0.776836 -0.847457,1.412429 -0.847457,7.627118 l 0,6.779661 -2.966102,0 -2.966102,0 0,-10.59322 z"
     id="path4147"
     inkscape:connector-curvature="0" />
  <path
     style="fill:#ff9d00;fill-opacity:1;stroke:none;stroke-width:10;stroke-miterlimit:4;stroke-dasharray:none;stroke-opacity:1"
     d="m 38.135593,54.661017 0,-10.59322 2.754238,0 2.754237,0 0,10.59322 0,10.59322 -2.754237,0 -2.754238,0 0,-10.59322 z"
     id="path4153"
     inkscape:connector-curvature="0" />
  <path
     style="fill:#ff9d00;fill-opacity:1;stroke:none;stroke-width:10;stroke-miterlimit:4;stroke-dasharray:none;stroke-opacity:1"
     d="m 39.077333,40.018346 c -0.644902,-0.451707 -0.94174,-1.09398 -0.94174,-2.037657 0,-2.718328 2.32143,-3.985432 4.36156,-2.380666 1.447096,1.138286 1.517047,2.887583 0.166215,4.156624 -1.157776,1.087674 -2.288935,1.170222 -3.586035,0.261699 z"
     id="path4155"
     inkscape:connector-curvature="0" />
</svg>
